<?xml version="1.0" encoding="UTF-8" standalone="no"?>
<!-- Created with Inkscape (http://www.inkscape.org/) -->

<svg
   width="750"
   height="750"
   viewBox="0 0 198.4375 198.4375"
   version="1.1"
   id="svg1"
   xml:space="preserve"
   inkscape:version="1.4.1-rc (d9e8dc1fe0, 2025-03-10)"
   sodipodi:docname="logoSmall.svg"
   inkscape:export-filename="../70311872/favicon.png"
   inkscape:export-xdpi="16.420202"
   inkscape:export-ydpi="16.420202"
   xmlns:inkscape="http://www.inkscape.org/namespaces/inkscape"
   xmlns:sodipodi="http://sodipodi.sourceforge.net/DTD/sodipodi-0.dtd"
   xmlns:xlink="http://www.w3.org/1999/xlink"
   xmlns="http://www.w3.org/2000/svg"
   xmlns:svg="http://www.w3.org/2000/svg"><sodipodi:namedview
     id="namedview1"
     pagecolor="#ffffff"
     bordercolor="#000000"
     borderopacity="0.25"
     inkscape:showpageshadow="2"
     inkscape:pageopacity="0.0"
     inkscape:pagecheckerboard="0"
     inkscape:deskcolor="#d1d1d1"
     inkscape:document-units="mm"
     inkscape:zoom="0.36308993"
     inkscape:cx="188.6585"
     inkscape:cy="290.56162"
     inkscape:window-width="1368"
     inkscape:window-height="707"
     inkscape:window-x="0"
     inkscape:window-y="0"
     inkscape:window-maximized="1"
     inkscape:current-layer="svg1"
     showguides="true" /><defs
     id="defs1"><linearGradient
       id="linearGradient1"
       inkscape:collect="always"><stop
         style="stop-color:#87ceeb;stop-opacity:1;"
         offset="0"
         id="stop1" /><stop
         style="stop-color:#ffffff;stop-opacity:1;"
         offset="0.59346849"
         id="stop2" /></linearGradient><linearGradient
       inkscape:collect="always"
       xlink:href="#linearGradient1"
       id="linearGradient2"
       x1="141.88866"
       y1="-6.2855854"
       x2="211.00496"
       y2="62.830719"
       gradientUnits="userSpaceOnUse"
       gradientTransform="matrix(1.9013337,1.7405691,-1.9013337,1.7405691,-176.72855,-181.75012)" /></defs><g
     id="g10"
     transform="matrix(0.94494047,0,0,0.95246411,9.5982422e-7,-42.222168)"><path
       id="path4"
       style="baseline-shift:baseline;display:inline;overflow:visible;vector-effect:none;fill:url(#linearGradient2);fill-opacity:1;stroke:none;stroke-width:2.57271;stroke-dasharray:none;stroke-opacity:1;paint-order:markers stroke fill;enable-background:accumulate;stop-color:#000000"
       d="M 104.99973,44.329406 A 104.99995,104.17081 0 0 0 -6.557541e-7,148.5 104.99995,104.17081 0 0 0 104.99973,252.67059 104.99995,104.17081 0 0 0 210,148.5 104.99995,104.17081 0 0 0 104.99973,44.329406 Z" /><path
       id="path11"
       style="fill:#ffdb58;fill-opacity:1;stroke:none;stroke-width:0.597906;stroke-opacity:1"
       d="m 109.92062,129.23675 a 69.365007,63.499949 0 0 0 -69.36549,63.50027 69.365007,63.499949 0 0 0 37.703836,56.49878 104.99995,104.17081 0 0 0 26.740764,3.43479 104.99995,104.17081 0 0 0 53.26903,-14.40081 69.365007,63.499949 0 0 0 21.01682,-45.53276 69.365007,63.499949 0 0 0 -69.36496,-63.50027 z" /><path
       style="fill:#000000;fill-opacity:0.5;stroke:#ffdb58;stroke-width:3.9082;stroke-linecap:round;stroke-linejoin:round;stroke-dasharray:none;stroke-opacity:1"
       d="m 109.92037,63.686513 v 47.657097 0.67092 z"
       id="path21"
       sodipodi:nodetypes="cccc" /><path
       style="fill:#000000;fill-opacity:0.5;stroke:#ffdb58;stroke-width:3.9082;stroke-linecap:round;stroke-linejoin:round;stroke-dasharray:none;stroke-opacity:1"
       d="m 142.89057,80.094279 -9.95839,34.022741 -0.18957,0.64805 z"
       id="path23" /><path
       style="fill:#000000;fill-opacity:0.5;stroke:#ffdb58;stroke-width:3.9082;stroke-linecap:round;stroke-linejoin:round;stroke-dasharray:none;stroke-opacity:1"
       d="m 166.57105,105.43984 -12.19523,16.80837 -0.36644,0.58105 z"
       id="path25"
       sodipodi:nodetypes="cccc" /><path
       style="fill:#000000;fill-opacity:0.5;stroke:#ffdb58;stroke-width:3.9082;stroke-linecap:round;stroke-linejoin:round;stroke-dasharray:none;stroke-opacity:1"
       d="m 77.453244,87.850531 9.455319,26.266489 0.189674,0.64805 z"
       id="path27"
       sodipodi:nodetypes="cccc" /><path
       style="fill:#000000;fill-opacity:0.5;stroke:#ffdb58;stroke-width:3.9082;stroke-linecap:round;stroke-linejoin:round;stroke-dasharray:none;stroke-opacity:1"
       d="m 56.029099,107.28678 9.435833,14.96143 0.366443,0.58105 z"
       id="path29"
       sodipodi:nodetypes="cccc" /><path
       style="fill:#000000;fill-opacity:0.5;stroke:#ffdb58;stroke-width:3.9082;stroke-linecap:round;stroke-linejoin:round;stroke-dasharray:none;stroke-opacity:1"
       d="m 12.446443,142.85307 19.857367,10.3597 0.582406,0.40726 z"
       id="path15"
       sodipodi:nodetypes="cccc" /><path
       style="fill:#000000;fill-opacity:0.5;stroke:#ffdb58;stroke-width:3.9082;stroke-linecap:round;stroke-linejoin:round;stroke-dasharray:none;stroke-opacity:1"
       d="m 196.08467,114.1423 -23.29483,21.0408 -0.51823,0.47441 z"
       id="path17"
       sodipodi:nodetypes="cccc" /><path
       style="fill:#000000;fill-opacity:0.5;stroke:#ffdb58;stroke-width:3.9082;stroke-linecap:round;stroke-linejoin:round;stroke-dasharray:none;stroke-opacity:1"
       d="m 47.258096,135.93595 -26.596414,-25.45285 -0.5066,-0.48482 z"
       id="path12" /><path
       id="rect6"
       style="display:inline;fill:#556202;fill-opacity:1;stroke:none;stroke-width:0.604567;stroke-opacity:1"
       d="m 176.85556,150.92883 c -1.57801,3e-5 -3.15694,0.70035 -4.36611,2.10358 l -50.0226,58.05354 9.5166,24.2242 -14.9111,-17.96487 -18.379103,-21.32814 c -2.418309,-2.80642 -6.311796,-2.80644 -8.730089,0 l -9.889294,11.47615 9.515529,24.22474 -14.91003,-17.96486 -37.169352,-43.13572 c -2.418292,-2.80642 -6.312318,-2.80644 -8.730621,0 L 9.8604601,192.57333 a 104.99995,104.17081 0 0 0 0,5.4e-4 104.99995,104.17081 0 0 0 95.1392699,60.09672 104.99995,104.17081 0 0 0 99.91333,-72.14128 l -23.69298,-27.4969 c -1.20913,-1.40323 -2.78651,-2.10355 -4.36452,-2.10358 z" /></g></svg>
